<svg xmlns="http://www.w3.org/2000/svg" viewBox="0 -120 814 1120">
  <path fill="#000" d="M788.1 340.9c-5.8 4.5-108.2 62.2-108.2 190.5 0 148.4 130.3 200.9 134.2 202.2-.6 3.2-20.7 71.9-68.7 141.9-42.8 61.6-87.5 123.1-155.5 123.1s-85.5-39.5-164-39.5c-76.5 0-103.7 40.8-165.9 40.8s-105.6-57-155.5-127C46.7 779.9 0 635.6 0 498.6c0-219.7 142.6-336.3 283-336.3 74.5 0 136.8 49.3 183.7 49.3 44.7 0 114.1-52.5 199-52.5 32.4 0 148.4 2.6 222.4 181.8ZM554.1 66.8C589.8 24 615.1-35.7 615.1-95.4c0-8.4-.6-16.9-1.9-23.4-58.3 2.6-127.7 38.9-169.8 87.5-33.1 37.6-64.2 97.3-64.2 157.7 0 9.1 1.3 18.2 1.9 21.1 3.9.6 10.4 1.3 16.9 1.3 52.5 0 118.6-35 156.1-82Z"/>
</svg>
